<svg width="27" height="24" viewBox="0 0 27 24" fill="none" xmlns="http://www.w3.org/2000/svg">
<path d="M22.6117 19L18.6321 15.3333C19.6271 14 20.2601 12.4167 20.2601 10.6667C20.2601 6.33336 16.3709 2.75 11.6676 2.75C6.96434 2.75 3.0751 6.33336 3.0751 10.6667C3.0751 15 6.96434 18.5834 11.6676 18.5834C13.567 18.5834 15.2855 18 16.7327 17.0833L20.7124 20.75L22.6117 19ZM5.78852 10.75C5.78852 7.75001 8.41149 5.33334 11.6676 5.33334C14.9237 5.33334 17.5467 7.75001 17.5467 10.75C17.5467 13.75 14.9237 16.1667 11.6676 16.1667C8.41149 16.1667 5.78852 13.75 5.78852 10.75Z" fill="black"/>
</svg>
