<svg width="37" height="37" viewBox="0 0 37 37" fill="none" xmlns="http://www.w3.org/2000/svg">
<path d="M12.3333 16.9583C14.8876 16.9583 16.9583 14.8876 16.9583 12.3333C16.9583 9.77902 14.8876 7.70834 12.3333 7.70834C9.77902 7.70834 7.70834 9.77902 7.70834 12.3333C7.70834 14.8876 9.77902 16.9583 12.3333 16.9583Z" stroke="black" stroke-width="3.10349"/>
<path d="M16.9583 12.3333H30.8333" stroke="black" stroke-width="3.10349"/>
<path d="M24.6666 20.0417C22.1123 20.0417 20.0416 22.1124 20.0416 24.6667C20.0416 27.221 22.1123 29.2917 24.6666 29.2917C27.2209 29.2917 29.2916 27.221 29.2916 24.6667C29.2916 22.1124 27.2209 20.0417 24.6666 20.0417Z" stroke="black" stroke-width="3.10349"/>
<path d="M20.0416 24.6667H6.16665" stroke="black" stroke-width="3.10349"/>
</svg>
