<svg width="25" height="25" viewBox="0 0 25 25" fill="none" xmlns="http://www.w3.org/2000/svg">
<path d="M16.6578 5.20831C19.2606 5.20831 20.8223 7.18748 20.8223 9.58332C20.8223 10.8333 20.1976 11.9792 19.4689 12.8125C18.2195 14.0625 12.4934 18.75 12.4934 18.75C12.4934 18.75 6.76724 14.0625 5.5179 12.8125C4.68501 11.9792 4.16445 10.8333 4.16445 9.58332C4.16445 7.18748 5.72613 5.20831 8.32892 5.20831C10.0988 5.20831 11.7646 6.87498 12.4934 8.33332C13.2222 6.87498 14.888 5.20831 16.6578 5.20831ZM16.6578 2.08331C15.0962 2.08331 13.6386 2.70831 12.4934 3.54165C11.3482 2.60415 9.89059 2.08331 8.32892 2.08331C4.16445 2.08331 1.0411 5.31248 1.0411 9.58332C1.0411 11.5625 1.874 13.4375 3.33156 15C4.78912 16.5625 12.4934 22.8125 12.4934 22.8125C12.4934 22.8125 20.1976 16.5625 21.6552 15C23.1128 13.4375 23.9457 11.5625 23.9457 9.58332C23.9457 5.31248 20.8223 2.08331 16.6578 2.08331Z" fill="white"/>
</svg>
